# xmcd
#
# Track frame offsets: 
#        150
#        10477
#        23189
#        31533
#        43897
#        54116
#        66786
#        77745
#        88307
#        100102
#        110222
#        118682
#        127404
#        135786
#        147930
#        158769
#        171786
#        188366
#
# Disc length: 2655 seconds
#
# Revision: 8
# Processed by: cddbd v1.5.2PL0 Copyright (c) Steve Scherf et al.
# Submitted via: ExactAudioCopy v1.0b3
#
DISCID=ec0a5d12
DTITLE=Cash, Johnny - A Boy Named Sue [Disc 1]
DYEAR=0
DGENRE=Country
TTITLE0=Ballad Of A Teenage Queen
TTITLE1=Folsom Prison Blues
TTITLE2=Guess Things Happen That Way
TTITLE3=You're The Nearest Thing To Heaven
TTITLE4=Get Rhythm
TTITLE5=Next In Line
TTITLE6=I Heard That Lonesome Whistle Blow
TTITLE7=Straight A's In Love
TTITLE8=Big River
TTITLE9=Hey Porter
TTITLE10=Wreck Of The Old '97
TTITLE11=Country Boy
TTITLE12=Sugartime
TTITLE13=Port Of Lonely Hearts
TTITLE14=Train Of Love
TTITLE15=Ring Of Fire
TTITLE16=A Boy Named Sue
TTITLE17=If I Were A Carpenter
EXTD=YEAR: 0
EXTT0=
EXTT1=
EXTT2=
EXTT3=
EXTT4=
EXTT5=
EXTT6=
EXTT7=
EXTT8=
EXTT9=
EXTT10=
EXTT11=
EXTT12=
EXTT13=
EXTT14=
EXTT15=
EXTT16=
EXTT17=
PLAYORDER=
